<?xml version="1.0" encoding="utf-8"?>
<!-- Generator: Adobe Illustrator 22.0.1, SVG Export Plug-In . SVG Version: 6.00 Build 0)  -->
<svg version="1.1" id="Layer_1" xmlns="http://www.w3.org/2000/svg" xmlns:xlink="http://www.w3.org/1999/xlink" x="0px" y="0px"
	 viewBox="0 0 483 116.2" style="enable-background:new 0 0 483 116.2;" xml:space="preserve">
<style type="text/css">
	.st0{fill:#BE1E2D;}
	.st1{fill:#FFFFFF;}
</style>
<g>
	<path class="st0" d="M483,28.4C324.3-9.5,158.7-9.5,0,28.4c11.2,12.8,22,25.8,32.5,38.9c-4.1,16.3-7.8,32.6-11.2,48.9
		c144.7-34.5,295.7-34.5,440.4,0c-3.4-16.3-7.1-32.6-11.2-48.9C461,54.2,471.8,41.2,483,28.4z"/>
</g>
<g>
	<path class="st1" d="M189.2,35.8c-2.7-2.6-6.4-3.8-11.1-3.5c-4.7,0.3-8.2,2-10.6,4.9c-2.3,3-3.3,7-3,12.2s1.9,9.1,4.6,11.7
		c2.7,2.7,6.5,3.8,11.2,3.5c4.7-0.3,8.2-2,10.6-5c2.4-3,3.4-7,2.9-12.2C193.5,42.3,191.9,38.4,189.2,35.8z M186.6,56.8
		c-1.4,2.1-3.7,3.2-6.7,3.4s-5.4-0.6-7.1-2.5s-2.6-4.7-2.9-8.6c-0.2-3.8,0.4-6.8,1.8-8.9c1.5-2,3.7-3.2,6.8-3.4
		c3.1-0.2,5.4,0.6,7.1,2.5c1.7,1.8,2.6,4.7,2.7,8.5C188.6,51.7,188,54.7,186.6,56.8z"/>
	<polygon class="st1" points="224.7,62.3 242.3,62.3 242.3,57.9 229.7,58 229.7,48.1 241.5,48 241.5,43.7 229.7,43.8 229.7,35.2 
		242.3,35.1 242.3,30.8 224.5,30.9 	"/>
	<polygon class="st1" points="218.1,31.1 200.4,31.7 201.4,63.1 206.5,62.9 206.1,50 217.9,49.6 217.8,45.2 206,45.6 205.6,35.8 
		218.2,35.4 	"/>
	<polygon class="st1" points="68.5,59.6 65.3,55.7 64.1,60.6 59.4,62.4 63.7,65 64.1,70 67.9,66.7 72.8,68 70.9,63.5 73.6,59.2 	"/>
	<polygon class="st1" points="100.7,53.1 97.8,48.9 96.2,53.7 91.3,55.2 95.4,58.2 95.3,63.3 99.4,60.3 104.2,62 102.7,57.1 
		105.8,53.1 	"/>
	<polygon class="st1" points="130.5,49.4 127.8,45.1 126,49.8 121.1,51 125,54.2 124.6,59.3 128.9,56.5 133.6,58.4 132.3,53.6 
		135.6,49.7 	"/>
	<polygon class="st1" points="274.9,36 284.1,36.5 282.6,63.5 287.7,63.8 289.2,36.8 298.4,37.3 298.7,32.9 275.1,31.6 	"/>
	<polygon class="st1" points="386.7,53.8 385.1,49 382.2,53.2 377.1,53.2 380.2,57.2 378.7,62.1 383.5,60.4 387.6,63.4 387.5,58.3 
		391.6,55.3 	"/>
	<polygon class="st1" points="418.8,60.4 417.6,55.5 414.4,59.4 409.3,59 412,63.3 410.2,67.9 415.1,66.6 418.9,69.9 419.2,64.8 
		423.5,62.2 	"/>
	<polygon class="st1" points="356.8,49.7 355,45 352.3,49.3 347.2,49.6 350.5,53.5 349.2,58.3 353.9,56.4 358.2,59.2 357.8,54.1 
		361.7,50.9 	"/>
	<path class="st1" d="M270.3,40.5c0.1-3-0.8-5.3-2.7-6.9c-1.9-1.6-4.8-2.4-8.9-2.5l-8.9-0.2L249,62.3l5.1,0.1l0.3-12.5l5.1,0.1
		l7.2,12.8l5.8,0L264,48.7C268.1,47.1,270.2,44.4,270.3,40.5z M258.1,45.8l-3.6-0.1l0.3-10.3l3.4,0.1c2.3,0.1,4.1,0.5,5.2,1.3
		c1.2,0.8,1.7,2.1,1.6,3.9c0,1.7-0.6,3-1.7,3.9C262.2,45.5,260.5,45.9,258.1,45.8z"/>
	<polygon class="st1" points="301.5,64.5 319.2,66 319.6,61.7 307,60.7 307.8,50.9 319.6,51.9 320,47.6 308.2,46.6 308.9,38.1 
		321.5,39.1 321.8,34.7 304.1,33.2 	"/>
</g>
</svg>
